<?xml version="1.0" encoding="utf-8"?>
<svg id="svg" version="1.1" style="display: block;" viewBox="280 600 1500 400" xmlns="http://www.w3.org/2000/svg">
    <path d="M 326.375 802.25 C 327.105 802.317 327.834 802.384 328.586 802.453 C 334.188 803.722 337.829 806.497 341.688 810.625 C 367.777 837.451 403.097 858.012 437.062 873.135 C 438.385 873.726 439.706 874.324 441.024 874.928 C 471.905 889.031 505.308 896.8 539 900 C 540.275 900.131 541.55 900.263 542.863 900.398 C 594.989 905.018 648.935 893.345 696 871 C 696.615 870.708 697.23 870.417 697.864 870.116 C 714.45 862.172 730.955 853.604 746 843 C 747.235 842.16 748.473 841.323 749.711 840.488 C 765.244 829.983 780.217 818.653 794.723 806.77 C 798.689 803.688 802.356 802.767 807.313 803 C 812.81 803.816 816.961 806.228 821 810 C 827.222 818.563 827.607 826.626 827 837 C 825.097 848.591 813.641 856.279 805 863 C 804.046 863.758 803.092 864.516 802.109 865.297 C 792.366 872.942 782.2 879.981 772 887 C 771.321 887.47 770.643 887.939 769.944 888.423 C 760.317 895.071 750.343 900.989 740.167 906.755 C 738.305 907.825 736.464 908.934 734.629 910.051 C 723.603 916.699 711.761 921.603 699.964 926.707 C 697.672 927.707 695.395 928.727 693.129 929.785 C 653.709 947.813 608.518 955.223 565.438 955.25 C 564.008 955.251 564.008 955.251 562.549 955.252 C 538.778 955.225 516.062 952.502 492.79 947.588 C 490.413 947.087 488.032 946.61 485.648 946.141 C 462.988 941.327 440.935 932.769 420 923 C 418.358 922.243 418.358 922.243 416.683 921.472 C 402.888 915.096 389.528 908.418 376.769 900.145 C 375.234 899.151 373.683 898.183 372.129 897.219 C 358.402 888.694 345.224 879.571 333 869 C 331.17 867.516 329.337 866.037 327.5 864.563 C 305.005 846.078 305.005 846.078 303.094 830.344 C 302.863 822.112 305.088 814.946 310.387 808.621 C 315.152 803.832 319.69 801.546 326.375 802.25 Z"
          style="fill: #FF8F00;"/>
    <path d="M 1038.063 782.625 C 1039.381 783.743 1040.694 784.868 1042 786 C 1043.326 787.01 1044.657 788.013 1046 789 C 1046.499 788.492 1046.998 787.984 1047.512 787.461 C 1059.934 775.551 1075.47 771.465 1092.288 771.58 C 1109.646 772.087 1125.065 777.403 1137.785 789.629 C 1150.658 803.41 1154.32 820.169 1154.275 838.564 C 1154.28 839.65 1154.285 840.736 1154.29 841.855 C 1154.304 845.402 1154.303 848.949 1154.301 852.496 C 1154.305 854.978 1154.309 857.46 1154.314 859.942 C 1154.321 865.122 1154.321 870.302 1154.316 875.482 C 1154.31 882.122 1154.327 888.762 1154.35 895.402 C 1154.365 900.518 1154.366 905.633 1154.363 910.748 C 1154.363 913.198 1154.368 915.647 1154.378 918.096 C 1154.391 921.511 1154.384 924.926 1154.372 928.342 C 1154.38 929.352 1154.388 930.362 1154.395 931.404 C 1154.349 937.553 1153.574 940.997 1149.5 945.75 C 1145.496 949.087 1139.74 948.378 1134.813 948.5 C 1133.431 948.581 1133.431 948.581 1132.021 948.664 C 1131.113 948.682 1130.205 948.7 1129.27 948.719 C 1128.451 948.749 1127.632 948.779 1126.788 948.811 C 1122.193 947.475 1118.983 944.706 1116 941 C 1114.888 937.501 1114.946 934.206 1115.032 930.558 C 1115.024 929.531 1115.016 928.504 1115.008 927.446 C 1114.992 924.062 1115.031 920.681 1115.07 917.297 C 1115.068 914.934 1115.062 912.572 1115.052 910.209 C 1115.035 903.992 1115.063 897.776 1115.104 891.559 C 1115.159 881.625 1115.14 871.689 1115.13 861.755 C 1115.133 858.296 1115.152 854.839 1115.174 851.381 C 1115.18 849.24 1115.186 847.1 1115.192 844.96 C 1115.202 844.01 1115.213 843.06 1115.223 842.081 C 1115.227 833.245 1114.959 823.98 1109 817 C 1103.746 811.746 1097.69 810.917 1090.563 810.688 C 1085.255 810.791 1080.853 811.898 1076 814 C 1075.093 814.392 1074.185 814.784 1073.25 815.188 C 1067.184 820.074 1065.21 826.563 1064 834 C 1063.753 837.582 1063.769 841.144 1063.808 844.733 C 1063.811 845.767 1063.814 846.8 1063.817 847.865 C 1063.823 850.095 1063.834 852.324 1063.848 854.554 C 1063.867 858.085 1063.87 861.616 1063.866 865.147 C 1063.856 875.182 1063.856 885.216 1063.921 895.251 C 1063.959 901.402 1063.959 907.552 1063.933 913.703 C 1063.931 916.042 1063.943 918.38 1063.97 920.719 C 1064.006 923.989 1063.993 927.256 1063.968 930.526 C 1063.991 931.487 1064.013 932.448 1064.037 933.439 C 1063.963 937.44 1063.813 939.989 1061.253 943.171 C 1057.63 946.438 1054.718 948.885 1049.652 948.895 C 1048.717 948.899 1047.782 948.904 1046.818 948.908 C 1045.868 948.877 1044.917 948.845 1043.938 948.813 C 1042.983 948.831 1042.028 948.85 1041.045 948.869 C 1034.989 948.79 1031.605 947.735 1027.244 943.479 C 1025.007 940.82 1024.873 938.996 1024.862 935.606 C 1024.857 934.682 1024.851 933.759 1024.845 932.807 C 1024.844 931.79 1024.843 930.774 1024.842 929.726 C 1024.837 928.658 1024.832 927.589 1024.827 926.488 C 1024.816 924.161 1024.808 921.834 1024.801 919.507 C 1024.789 915.82 1024.77 912.134 1024.748 908.447 C 1024.686 897.963 1024.632 887.478 1024.599 876.993 C 1024.578 870.585 1024.542 864.177 1024.498 857.768 C 1024.484 855.328 1024.475 852.888 1024.472 850.447 C 1024.467 847.024 1024.444 843.602 1024.417 840.179 C 1024.42 839.177 1024.423 838.175 1024.426 837.142 C 1024.339 829.754 1023.166 823.436 1019.188 817.125 C 1013.146 811.256 1005.872 810.695 997.848 810.781 C 991.12 811.298 985.235 813.739 980 818 C 974.31 825.27 973.711 831.769 973.776 840.668 C 973.776 841.73 973.776 842.793 973.775 843.887 C 973.775 846.189 973.779 848.49 973.787 850.792 C 973.797 854.436 973.792 858.081 973.781 861.725 C 973.753 872.085 973.741 882.445 973.77 892.804 C 973.787 899.146 973.774 905.488 973.744 911.829 C 973.737 914.244 973.742 916.658 973.758 919.072 C 973.78 922.449 973.765 925.825 973.741 929.203 C 973.757 930.197 973.772 931.191 973.788 932.215 C 973.699 938.201 972.697 941.426 968.482 945.751 C 964.35 949.235 958.953 948.346 953.813 948.438 C 952.783 948.483 951.754 948.529 950.693 948.576 C 945.454 948.653 941.938 948.554 937.824 945.098 C 934.132 941.418 933.87 939.039 933.839 933.846 C 933.829 932.533 933.819 931.219 933.809 929.865 C 933.803 928.401 933.797 926.936 933.791 925.472 C 933.782 923.936 933.772 922.4 933.762 920.865 C 933.73 915.812 933.71 910.76 933.691 905.707 C 933.688 904.848 933.685 903.988 933.681 903.103 C 933.651 894.998 933.624 886.893 933.607 878.788 C 933.585 868.419 933.543 858.051 933.474 847.683 C 933.426 840.394 933.402 833.105 933.395 825.815 C 933.39 821.462 933.375 817.108 933.335 812.755 C 933.298 808.656 933.29 804.559 933.303 800.46 C 933.303 798.959 933.293 797.457 933.271 795.955 C 933.099 783.208 933.099 783.208 936.919 778.614 C 941.811 773.965 946.862 774.746 953.313 774.688 C 954.882 774.644 954.882 774.644 956.482 774.6 C 964.289 774.535 964.289 774.535 968.09 777.02 C 968.72 777.673 969.351 778.327 970 779 C 973.437 779 976.075 777.501 979.125 776.063 C 996.966 767.953 1022.584 770.643 1038.063 782.625 Z"
          style="fill: #272727;"/>
    <path d="M 1325.551 790.224 C 1344.373 805.917 1356.608 827.427 1359 852 C 1360.152 870.07 1360.152 870.07 1354 877.375 C 1350.719 880.04 1347.929 880.124 1343.856 880.12 C 1342.259 880.122 1342.259 880.122 1340.631 880.124 C 1339.463 880.121 1338.296 880.117 1337.093 880.114 C 1335.249 880.114 1335.249 880.114 1333.368 880.114 C 1329.996 880.113 1326.624 880.108 1323.253 880.101 C 1319.729 880.095 1316.206 880.095 1312.683 880.093 C 1306.01 880.09 1299.338 880.082 1292.666 880.072 C 1285.07 880.061 1277.474 880.055 1269.878 880.05 C 1254.252 880.04 1238.626 880.022 1223 880 C 1224.075 882.069 1225.159 884.133 1226.246 886.195 C 1226.849 887.345 1227.451 888.495 1228.072 889.68 C 1234.394 900.566 1245.403 907.135 1257.375 910.438 C 1273.506 913.141 1288.557 910.496 1302 901 C 1307.564 896.415 1311.574 891.045 1315.457 885.004 C 1317 883 1317 883 1320 882 C 1323.216 883.289 1326.14 885.136 1329.121 886.896 C 1330.494 887.703 1331.874 888.499 1333.258 889.288 C 1335.725 890.695 1338.176 892.126 1340.625 893.563 C 1341.835 894.25 1341.835 894.25 1343.069 894.952 C 1348.681 898.306 1348.681 898.306 1350.172 901.551 C 1349.427 912.169 1336.824 923.656 1329.313 930.188 C 1318.461 938.842 1307.311 944.214 1294 948 C 1293.225 948.235 1292.451 948.469 1291.652 948.711 C 1268.773 954.795 1243.728 949.685 1223.18 938.875 C 1218.345 936.024 1214.151 932.767 1210 929 C 1209.169 928.261 1208.337 927.523 1207.48 926.762 C 1190.597 910.916 1181.954 888.612 1180.84 865.707 C 1180.23 840.55 1188.353 817.703 1205.004 798.715 C 1234.995 767.269 1291.36 763.253 1325.551 790.224 Z M 1233.578 825.293 C 1228.309 830.846 1226.309 834.554 1223 842 C 1253.69 842 1284.38 842 1316 842 C 1313.993 835.98 1311.975 832.72 1308 828 C 1307.423 827.314 1306.845 826.628 1306.25 825.922 C 1297.08 815.912 1284.73 811.872 1271.473 811.035 C 1257.2 810.891 1243.987 815.438 1233.578 825.293 Z"
          style="fill: #282828;"/>
    <path d="M 1691.563 793.887 C 1709.532 809.466 1720.81 831.085 1722.875 854.914 C 1722.916 855.602 1722.958 856.291 1723 857 C 1723.041 857.668 1723.083 858.335 1723.125 859.023 C 1723.826 882.608 1714.794 905.519 1699.035 922.898 C 1682.387 940.369 1659.983 949.862 1636 951 C 1615.141 951.436 1594.041 944.376 1578 931 C 1577.064 930.227 1576.128 929.453 1575.164 928.656 C 1557.857 913.673 1547.157 891.745 1545 869 C 1543.354 844.336 1551.237 821.264 1567.438 802.688 C 1568.94 801.107 1570.461 799.544 1572 798 C 1572.735 797.242 1573.47 796.484 1574.227 795.703 C 1585.068 785.188 1598.562 778.914 1613 775 C 1613.884 774.755 1614.769 774.51 1615.68 774.258 C 1642.558 768.145 1670.712 776.587 1691.563 793.887 Z M 1598 826 C 1588.359 836.048 1583.096 848.459 1582.969 862.414 C 1583.606 877.034 1589.227 890.354 1600.066 900.445 C 1611.299 909.477 1624.655 913.978 1639 913 C 1653.704 910.894 1665.826 904.154 1675.039 892.398 C 1683.711 879.594 1686.212 866.482 1683.715 851.387 C 1681.061 838.811 1673.659 827.338 1663 820 C 1641.298 807.483 1616.643 808.112 1598 826 Z"
          style="fill: #282828;"/>
    <path d="M 1493.75 651.563 C 1494.727 651.517 1495.704 651.471 1496.711 651.424 C 1501.827 651.345 1505.132 651.535 1509.141 654.902 C 1511.41 657.143 1512.92 658.752 1513.131 662.036 C 1513.134 662.882 1513.137 663.728 1513.14 664.599 C 1513.145 665.574 1513.151 666.549 1513.157 667.554 C 1513.158 668.633 1513.159 669.712 1513.161 670.823 C 1513.166 671.963 1513.171 673.104 1513.176 674.278 C 1513.189 677.453 1513.198 680.627 1513.204 683.802 C 1513.21 686.522 1513.22 689.242 1513.231 691.963 C 1513.264 700.927 1513.285 709.892 1513.304 718.856 C 1513.309 721.19 1513.314 723.524 1513.319 725.858 C 1513.35 740.346 1513.376 754.835 1513.393 769.324 C 1513.397 772.681 1513.401 776.038 1513.405 779.395 C 1513.406 780.23 1513.407 781.064 1513.408 781.924 C 1513.425 795.441 1513.466 808.957 1513.517 822.474 C 1513.569 836.347 1513.598 850.22 1513.605 864.093 C 1513.61 871.885 1513.625 879.675 1513.665 887.466 C 1513.699 894.102 1513.713 900.737 1513.701 907.372 C 1513.695 910.758 1513.702 914.142 1513.729 917.527 C 1513.756 921.199 1513.747 924.87 1513.728 928.542 C 1513.753 930.143 1513.753 930.143 1513.779 931.777 C 1513.701 937.926 1512.854 941.34 1508.482 945.774 C 1504.383 949.164 1499.252 948.224 1494.188 948.25 C 1492.69 948.281 1492.69 948.281 1491.162 948.313 C 1484.762 948.347 1481.192 947.736 1476.25 943.5 C 1473.879 940.655 1473.874 937.837 1473.869 934.303 C 1473.863 932.846 1473.863 932.846 1473.857 931.36 C 1473.858 930.29 1473.859 929.221 1473.86 928.119 C 1473.857 926.985 1473.854 925.85 1473.851 924.682 C 1473.842 920.861 1473.84 917.04 1473.839 913.219 C 1473.835 910.488 1473.829 907.757 1473.824 905.026 C 1473.81 897.592 1473.804 890.158 1473.8 882.724 C 1473.797 878.084 1473.793 873.444 1473.788 868.803 C 1473.776 855.96 1473.766 843.116 1473.762 830.273 C 1473.762 829.45 1473.762 828.628 1473.762 827.781 C 1473.762 826.957 1473.761 826.133 1473.761 825.284 C 1473.761 823.614 1473.76 821.944 1473.76 820.274 C 1473.76 819.446 1473.759 818.617 1473.759 817.764 C 1473.755 804.336 1473.738 790.909 1473.714 777.481 C 1473.691 763.701 1473.678 749.92 1473.677 736.14 C 1473.676 728.4 1473.67 720.661 1473.652 712.921 C 1473.637 706.332 1473.632 699.743 1473.64 693.154 C 1473.644 689.791 1473.641 686.429 1473.629 683.066 C 1473.616 679.422 1473.622 675.779 1473.633 672.135 C 1473.624 671.07 1473.616 670.005 1473.608 668.908 C 1473.651 662.623 1474.337 659.106 1478.5 654.25 C 1482.623 650.815 1488.686 651.658 1493.75 651.563 Z"
          style="fill: #272727;"/>
    <path d="M 1409.75 651.563 C 1410.727 651.517 1411.704 651.471 1412.711 651.424 C 1417.827 651.345 1421.132 651.535 1425.141 654.902 C 1427.41 657.143 1428.92 658.752 1429.131 662.036 C 1429.134 662.882 1429.137 663.728 1429.14 664.599 C 1429.145 665.574 1429.151 666.549 1429.157 667.554 C 1429.158 668.633 1429.159 669.712 1429.161 670.823 C 1429.166 671.963 1429.171 673.104 1429.176 674.278 C 1429.189 677.453 1429.198 680.627 1429.204 683.802 C 1429.21 686.522 1429.22 689.242 1429.231 691.963 C 1429.264 700.927 1429.285 709.892 1429.304 718.856 C 1429.309 721.19 1429.314 723.524 1429.319 725.858 C 1429.35 740.346 1429.376 754.835 1429.393 769.324 C 1429.397 772.681 1429.401 776.038 1429.405 779.395 C 1429.406 780.23 1429.407 781.064 1429.408 781.924 C 1429.425 795.441 1429.466 808.957 1429.517 822.474 C 1429.569 836.347 1429.598 850.22 1429.605 864.093 C 1429.61 871.885 1429.625 879.675 1429.665 887.466 C 1429.699 894.102 1429.713 900.737 1429.701 907.372 C 1429.695 910.758 1429.702 914.142 1429.729 917.527 C 1429.756 921.199 1429.747 924.87 1429.728 928.542 C 1429.753 930.143 1429.753 930.143 1429.779 931.777 C 1429.701 937.926 1428.854 941.34 1424.482 945.774 C 1420.383 949.164 1415.252 948.224 1410.188 948.25 C 1408.69 948.281 1408.69 948.281 1407.162 948.313 C 1400.762 948.347 1397.192 947.736 1392.25 943.5 C 1389.879 940.655 1389.874 937.837 1389.869 934.303 C 1389.863 932.846 1389.863 932.846 1389.857 931.36 C 1389.858 930.29 1389.859 929.221 1389.86 928.119 C 1389.857 926.985 1389.854 925.85 1389.851 924.682 C 1389.842 920.861 1389.84 917.04 1389.839 913.219 C 1389.835 910.488 1389.829 907.757 1389.824 905.026 C 1389.81 897.592 1389.804 890.158 1389.8 882.724 C 1389.797 878.084 1389.793 873.444 1389.788 868.803 C 1389.776 855.96 1389.766 843.116 1389.762 830.273 C 1389.762 829.45 1389.762 828.628 1389.762 827.781 C 1389.762 826.957 1389.761 826.133 1389.761 825.284 C 1389.761 823.614 1389.76 821.944 1389.76 820.274 C 1389.76 819.446 1389.759 818.617 1389.759 817.764 C 1389.755 804.336 1389.738 790.909 1389.714 777.481 C 1389.691 763.701 1389.678 749.92 1389.677 736.14 C 1389.676 728.4 1389.67 720.661 1389.652 712.921 C 1389.637 706.332 1389.632 699.743 1389.64 693.154 C 1389.644 689.791 1389.641 686.429 1389.629 683.066 C 1389.616 679.422 1389.622 675.779 1389.633 672.135 C 1389.624 671.07 1389.616 670.005 1389.608 668.908 C 1389.651 662.623 1390.337 659.106 1394.5 654.25 C 1398.623 650.815 1404.686 651.658 1409.75 651.563 Z"
          style="fill: #272727;"/>
    <path d="M 448 697 C 452.677 699.588 455.132 702.206 457.875 706.75 C 463.245 715.106 469.015 722.415 479 725 C 487.93 726.257 495.211 724.257 502.613 719.223 C 508.964 714.287 514.353 708.621 519.673 702.61 C 523.389 698.448 525.186 697.149 530.813 696.688 C 535.216 696.76 537.631 698.09 541 701 C 546.194 707.878 546.702 713.581 546 722 C 544.118 730.397 535.839 737.112 530 743 C 528.755 744.265 528.755 744.265 527.484 745.555 C 521.05 751.712 513.886 756.007 506 760 C 504.695 760.686 504.695 760.686 503.363 761.387 C 492.568 766.217 478.527 765.603 467.438 762 C 450.923 755.077 438.443 741.494 430 726 C 427.465 719.408 426.985 713.958 429.563 707.375 C 433.352 699.729 439.108 694.683 448 697 Z"
          style="fill: #FF8F00;"/>
    <path d="M 607.625 698 C 611.057 700.89 613.411 704.359 616 708 C 621.55 715.507 627.355 723.025 637 725 C 646.453 726.012 653.917 723.512 661.5 717.875 C 668.348 712.231 674.473 705.929 680 699 C 683.046 696.715 686.215 696.57 689.98 696.695 C 694.177 697.328 696.754 699.539 699.445 702.695 C 703.071 707.813 704.42 712.741 704 719 C 702.39 728.169 695.686 734.262 689.388 740.593 C 688.271 741.725 687.188 742.891 686.117 744.066 C 677.231 753.689 663.192 763.064 649.885 764.177 C 629.921 764.717 629.921 764.717 621 760 C 620.166 759.576 619.332 759.152 618.473 758.715 C 605.051 751.29 591.159 737.701 586 723 C 584.988 716.388 584.775 710.179 588.313 704.313 C 593.29 697.571 599.382 694.86 607.625 698 Z"
          style="fill: #FF8F00;"/>
</svg>