<?xml version="1.0" standalone="yes"?>
<svg xmlns="http://www.w3.org/2000/svg" width="565" height="508">
    <path style="fill:#ff9101; stroke:none;"
          d="M156 127.573C138.601 132.481 144.321 154.677 151.746 165C166.013 184.835 188.862 199.656 214 192.572C231.509 187.637 251.781 172.45 260 156C265.008 145.977 261.438 129.579 249 127.344C240.142 125.753 235.297 133.446 229.961 138.999C221.622 147.677 210.061 157.941 197 155.671C188.184 154.14 180.856 146.965 175.785 140C170.863 133.241 165.937 124.77 156 127.573M313 127.653C295.43 133.141 302.312 155.663 309.885 166C324.516 185.971 347.798 199.982 373 191.971C385.945 187.857 396.577 179.529 405.996 170C410.363 165.582 415.091 160.762 417.637 155C421.964 145.204 418.462 128.864 406 127.228C397.053 126.054 391.651 134.215 386.285 139.91C378.186 148.506 366.66 157.891 354 155.671C345.188 154.127 338.183 146.975 333.206 140C328.275 133.09 322.948 124.545 313 127.653z"/>
    <path style="fill:#ff9101; stroke:none;"
          d="M38 232.507C20.4321 235.028 14.7374 257.675 21.1852 272C24.8657 280.177 32.3725 285.86 39 291.575C51.9944 302.78 65.7307 312.821 80 322.333C147.173 367.111 228.898 391.272 309.715 383.772C380.56 377.197 445.861 346.832 503 305.576C510.871 299.893 518.544 293.967 526 287.753C531.197 283.422 536.595 279.245 539.597 273C546.477 258.689 540.252 236.293 523 233.482C511.703 231.641 502.022 243.174 494 249.424C473.866 265.111 452.708 279.992 430 291.742C384.797 315.131 337.115 330.064 285.996 331.964C267.667 332.645 249.112 330.473 231 327.869C183.498 321.039 136.213 299.827 97 272.717C84.5174 264.087 72.1403 255.269 61 244.91C54.7033 239.055 47.5822 231.132 38 232.507z"/>
</svg>
