<?xml version="1.0" standalone="no"?>
<!DOCTYPE svg PUBLIC "-//W3C//DTD SVG 20010904//EN"
 "http://www.w3.org/TR/2001/REC-SVG-20010904/DTD/svg10.dtd">
<svg version="1.0" xmlns="http://www.w3.org/2000/svg"
 width="565.000000pt" height="565.000000pt" viewBox="0 0 565.000000 565.000000"
 preserveAspectRatio="xMidYMid meet">
<metadata>
Created by potrace 1.14, written by Peter Selinger 2001-2017
</metadata>
<g transform="translate(0.000000,565.000000) scale(0.100000,-0.100000)"
fill="#000000" stroke="none">
<path d="M1514 4073 c-47 -32 -67 -75 -66 -142 2 -74 7 -94 45 -166 114 -219
380 -368 592 -332 177 29 397 181 492 339 30 49 58 160 45 173 -3 3 -7 14 -9
25 -10 68 -89 133 -154 127 -45 -5 -80 -29 -145 -99 -42 -45 -114 -111 -149
-136 -34 -24 -104 -46 -148 -46 -70 0 -88 5 -144 41 -46 30 -68 53 -143 151
-71 93 -143 114 -216 65z"/>
<path d="M3112 4085 c-70 -30 -92 -74 -88 -170 5 -102 40 -173 145 -287 88
-96 216 -172 326 -193 53 -10 158 -6 210 8 45 13 162 64 175 77 3 3 21 16 40
30 52 36 55 39 139 123 100 99 132 157 132 235 1 85 -30 145 -86 172 -79 38
-114 23 -246 -109 -110 -111 -181 -153 -267 -157 -103 -5 -170 37 -263 162
-91 122 -135 144 -217 109z"/>
<path d="M322 3025 c-47 -22 -112 -96 -112 -127 0 -8 -3 -18 -7 -22 -10 -10
-14 -35 -14 -96 0 -70 5 -90 33 -147 40 -81 282 -286 533 -454 66 -44 125 -83
130 -87 17 -13 115 -72 119 -72 3 0 37 -19 78 -43 103 -61 431 -214 473 -221
6 -1 15 -4 20 -7 13 -8 108 -39 118 -39 4 0 20 -6 35 -13 23 -12 246 -76 320
-92 88 -19 112 -24 157 -31 22 -3 42 -7 45 -9 3 -2 35 -7 70 -10 36 -4 67 -8
70 -10 30 -18 561 -27 715 -12 90 9 212 25 235 32 8 2 33 6 55 10 22 3 48 8
58 11 11 3 29 7 40 9 53 8 244 61 352 97 211 70 576 234 720 324 22 13 47 27
55 31 18 8 223 135 230 142 3 4 39 28 80 56 71 47 272 196 296 219 6 6 29 25
50 41 21 17 47 41 59 54 11 13 25 29 31 35 30 31 58 117 58 176 0 138 -93 256
-207 265 -41 3 -125 -26 -139 -48 -4 -7 -8 -9 -8 -4 0 4 -8 -1 -18 -10 -82
-79 -181 -155 -390 -299 -284 -196 -607 -357 -922 -459 -47 -15 -92 -30 -100
-33 -8 -3 -20 -6 -26 -7 -6 -2 -36 -10 -66 -19 -30 -8 -66 -18 -79 -20 -13 -3
-24 -5 -24 -6 0 -6 -296 -56 -375 -65 -66 -6 -238 -17 -275 -17 -95 1 -291 16
-370 29 -22 3 -51 7 -65 8 -65 5 -148 20 -260 47 -47 11 -92 21 -100 23 -8 2
-76 23 -150 48 -235 77 -444 173 -659 302 -164 98 -205 124 -236 147 -5 5 -66
49 -135 100 -69 51 -130 97 -136 103 -29 27 -152 135 -174 153 -26 20 -90 41
-123 39 -10 0 -39 -10 -65 -22z"/>
</g>
</svg>
