<svg width="26" height="26" xmlns="http://www.w3.org/2000/svg" fill="none">

    <g>
        <title>Layer 1</title>
        <path id="svg_1" fill="#615CCD"
              d="m11.079,17l0,2c0,0.56 -0.44,1 -1,1l-2,0c-0.56,0 -1,-0.44 -1,-1l0,-10c0,-0.56 0.44,-1 1,-1l0.58,0c0.9,0 1.34,-1.08 0.7,-1.7l-3.56,-3.6a0.99,0.99 0 0 0 -1.42,0l-3.58,3.6c-0.64,0.62 -0.18,1.7 0.7,1.7l0.58,0c0.56,0 1,0.44 1,1l0,14c0,0.56 0.44,1 1,1l10,0c0.56,0 1,-0.44 1,-1l0,-6c0,-0.56 -0.44,-1 -1,-1l-2,0c-0.54,0 -1,0.44 -1,1z"/>
        <path id="svg_2" fill="#615CCD"
              d="m24.079,20c-0.56,0 -1,-0.44 -1,-1l0,-14c0,-0.56 -0.44,-1 -1,-1l-10,0c-0.56,0 -1,0.44 -1,1l0,6c0,0.56 0.44,1 1,1l2,0c0.56,0 1,-0.44 1,-1l0,-2c0,-0.56 0.44,-1 1,-1l2,0c0.56,0 1,0.44 1,1l0,10c0,0.56 -0.44,1 -1,1l-0.58,0c-0.9,0 -1.34,1.08 -0.7,1.7l3.58,3.58c0.4,0.4 1.02,0.4 1.42,0l3.58,-3.58c0.62,-0.62 0.18,-1.7 -0.7,-1.7l-0.6,0z"/>
    </g>
</svg>